<svg width="47" height="49" viewBox="0 0 47 49" fill="none" xmlns="http://www.w3.org/2000/svg">
<path d="M43.3822 12.9496C40.337 7.39017 35.42 3.41357 29.537 1.75209C23.6542 0.0906164 17.5095 0.943328 12.235 4.15294C6.9605 7.36256 3.18754 12.5451 1.61127 18.7457C0.0350059 24.9462 0.843942 31.4228 3.88912 36.9821C6.62071 41.9689 10.9622 45.7588 16.1139 47.6535C18.556 48.5516 21.1053 48.9998 23.6507 48.9998C26.4183 48.9998 29.1809 48.4696 31.7922 47.4118C32.2514 47.2258 32.4806 46.6826 32.304 46.1985C32.1274 45.7145 31.6119 45.4727 31.1529 45.6591C24.2021 48.4749 16.6774 47.1955 11.0555 42.7478L11.8537 38.3565L12.2383 38.2249C13.6916 37.7272 14.4898 36.076 14.0178 34.5442L13.7356 33.6287C13.6703 33.4169 13.6707 33.1929 13.7365 32.9813C13.9841 32.1857 13.8956 31.3154 13.4937 30.5931C13.0918 29.8709 12.4143 29.3645 11.6347 29.2038L9.62393 28.7897L5.74424 25.6807C5.51181 25.4944 5.20756 25.44 4.92978 25.535L2.65835 26.3127C2.61015 25.4565 2.60944 24.6005 2.65523 23.749C2.74485 23.837 2.80321 23.8968 2.83911 23.936C2.88357 24.014 2.93862 24.0856 3.00312 24.1476C3.18861 24.3256 3.35663 24.4064 3.70943 24.4064C4.03363 24.4063 4.51355 24.3382 5.30601 24.2148C6.05757 24.0977 6.80521 23.9658 6.81261 23.9645C7.11222 23.9116 7.3655 23.7013 7.4847 23.4069C7.6039 23.1124 7.57246 22.7743 7.40131 22.5097L6.30898 20.821L7.87358 19.6418C7.97781 19.5632 8.06477 19.4618 8.12847 19.3447L10.5538 14.882L11.5313 13.7779C12.5303 12.6494 12.8154 10.9984 12.2575 9.57148C11.9284 8.72985 11.3536 8.02916 10.6347 7.55693C11.4133 6.91174 12.2435 6.31604 13.1259 5.77921C16.3632 3.80917 19.8962 2.85449 23.392 2.81796L21.8012 4.92124L15.9021 7.10095C15.6625 7.18941 15.4701 7.38153 15.3733 7.62886L13.7259 11.8382C13.6089 12.1373 13.6461 12.4785 13.8243 12.7418L16.2305 16.2943C15.8859 16.6257 15.5505 17.1083 15.1498 17.7076C14.9741 17.9704 14.8082 18.2186 14.6936 18.3578C14.5939 18.4789 14.4941 18.5972 14.3952 18.7144C13.8777 19.328 13.3426 19.9627 12.9625 20.8104C12.1266 22.6752 12.2955 24.8426 13.403 26.4669C14.474 28.0374 16.2396 28.8357 18.124 28.6021C18.431 28.5642 18.7172 28.4895 18.9942 28.4172C19.758 28.2181 20 28.1982 20.245 28.4399C20.3642 28.5575 20.3751 28.5798 20.3727 28.9788C20.371 29.2327 20.3691 29.5485 20.4522 29.9092C20.5852 30.4862 20.929 30.885 21.2052 31.2054C21.3425 31.3646 21.4845 31.5293 21.5282 31.6398C21.8061 32.3416 21.6851 32.7303 21.42 33.582C21.3972 33.6548 21.3741 33.7292 21.3508 33.8054C20.9481 35.1196 21.5095 36.4231 22.0048 37.573C22.1657 37.9465 22.3176 38.299 22.4171 38.6105C23.2182 41.1157 23.8186 41.6894 24.3005 41.9204C24.5529 42.0414 24.8141 42.0944 25.078 42.0943C26.3622 42.0942 27.7023 40.8375 28.3179 40.0407C28.7046 39.5404 28.7998 39.0395 28.8693 38.6735C28.904 38.4915 28.9312 38.3479 28.9833 38.254C29.0629 38.1103 29.1567 37.9989 29.2755 37.8579C29.5143 37.5744 29.8116 37.2217 30.0041 36.5824C30.1504 36.0967 30.2567 35.9776 30.6087 35.5825C30.67 35.5139 30.7353 35.4404 30.8054 35.3601C31.992 33.9992 31.6864 32.9596 31.3628 31.8589C31.0904 30.9327 31.5668 30.3404 32.7185 29.2099C33.2178 28.7199 33.734 28.2132 34.133 27.6043C34.3076 27.3378 34.8389 26.5272 34.5101 25.7237C34.1879 24.9359 33.3689 24.8035 32.7109 24.6972C32.451 24.6551 32.0583 24.5916 31.9333 24.5055C31.3821 24.1257 31.0449 23.333 30.7187 22.5663C30.6538 22.4137 30.5897 22.2631 30.5248 22.1169C30.409 21.856 30.2932 21.5404 30.1707 21.2063C29.8466 20.3222 29.4793 19.32 28.854 18.6213C28.2919 17.9936 27.2324 17.6913 26.2975 17.4244C25.9831 17.3347 25.6864 17.25 25.4907 17.1739C25.3266 17.11 25.1486 17.0985 24.9788 17.1405C24.5239 17.2529 24.24 17.3768 24.0292 17.5548C23.9735 17.6019 23.8086 17.7563 23.7121 18.0046C23.3859 17.8396 22.9374 17.5246 22.6614 17.3307C22.6557 17.3266 22.6499 17.3226 22.6442 17.3186C22.7372 16.9262 22.6531 16.6114 22.5649 16.4148C22.0672 15.3052 20.4152 15.3921 20.0893 15.4213C19.9042 15.4376 19.67 15.4464 19.4222 15.4556C19.0331 15.4701 18.6029 15.4865 18.1774 15.5368L18.1993 15.4724C18.5223 14.5237 19.3819 13.8863 20.3381 13.8863H20.8446C21.3365 13.8863 21.7354 13.4658 21.7354 12.9474C21.7354 12.429 21.3365 12.0085 20.8446 12.0085H20.3381C18.9184 12.0085 17.6183 12.796 16.8897 14.0356L15.5609 12.0737L16.8682 8.73379L22.6326 6.60375C22.7906 6.54534 22.9299 6.44111 23.0345 6.30299L25.5969 2.91515C32.1445 3.57161 38.3078 7.44087 41.8395 13.8883C42.7802 15.6056 43.476 17.4136 43.9387 19.2628L43.561 19.6177C43.0681 20.0813 42.7793 20.7462 42.7682 21.4421C42.7681 21.4497 42.7679 21.4572 42.7677 21.4647L42.1524 19.6814C42.0608 19.4153 41.9257 19.1712 41.7513 18.9561L40.6538 17.6018C40.2283 17.0768 39.6087 16.7758 38.9538 16.7758H37.6104C37.1335 16.7758 36.6977 17.0511 36.4728 17.4941C36.2478 17.9371 36.2724 18.4721 36.5369 18.8902L36.6729 19.1053C35.8048 19.8921 34.8007 20.5217 33.7317 20.9463L31.8902 17.2285V16.3991C31.8902 16.1425 31.7906 15.897 31.6144 15.72L29.9562 14.0515C29.8647 13.9595 29.7557 13.889 29.6364 13.8448L28.1437 13.2919C27.6792 13.1197 27.1709 13.3773 27.0079 13.8664C26.8447 14.3557 27.0888 14.8916 27.5529 15.0635L28.8647 15.5495L30.1085 16.8009V17.4589C30.1085 17.6102 30.1433 17.7593 30.2098 17.8935L32.5151 22.5479C32.7224 22.9667 33.193 23.1581 33.613 22.9943L34.2843 22.7334C35.8438 22.1272 37.2893 21.1521 38.4646 19.9135C38.7648 19.597 38.8115 19.1013 38.5758 18.7288L38.5284 18.6537H38.9538C39.0868 18.6537 39.2127 18.7149 39.2991 18.8215L40.3966 20.1759C40.432 20.2195 40.4594 20.2689 40.4781 20.3231L41.6893 23.8334C41.7933 24.135 42.0363 24.3596 42.3334 24.4291C42.3975 24.444 42.4621 24.4513 42.5263 24.4513C42.76 24.4513 42.9875 24.3543 43.1562 24.1763L43.7327 23.5687C44.0978 23.1838 44.3491 22.6968 44.4692 22.157C45.3608 29.6883 42.559 37.479 36.6369 42.3782C36.2498 42.6983 36.1822 43.2885 36.4861 43.6965C36.7898 44.1045 37.3497 44.1756 37.7369 43.8553C42.0125 40.3184 44.9498 35.2595 46.0077 29.6105C47.0755 23.9071 46.1432 17.99 43.3822 12.9496ZM5.03687 27.4729L8.71031 30.4168C8.81891 30.5038 8.94489 30.5633 9.0787 30.5908L11.2928 31.0468C11.5754 31.105 11.8111 31.2812 11.9567 31.543C12.1024 31.8047 12.1331 32.1075 12.0434 32.3959C11.859 32.9887 11.8581 33.6157 12.041 34.2088L12.3233 35.1242C12.4919 35.6712 12.2066 36.261 11.6877 36.4388L10.8024 36.742C10.4935 36.8477 10.2639 37.1223 10.2028 37.4583L9.49029 41.3785C7.92383 39.8674 6.54846 38.0814 5.43207 36.0433C4.07006 33.5571 3.21908 30.9052 2.84401 28.2238L5.03687 27.4729ZM10.2288 12.4968L9.18079 13.6802C9.13402 13.7331 9.09313 13.7915 9.05901 13.8542L6.67924 18.2333L4.56416 19.8274C4.1702 20.1243 4.07345 20.6983 4.34624 21.1201L5.13727 22.3431C4.68131 22.4146 4.27212 22.4736 4.00004 22.5049C3.94774 22.452 3.89304 22.3984 3.83647 22.343C3.6247 22.1357 3.33044 21.8587 2.89176 21.4541C3.61526 16.7344 5.77302 12.288 9.16663 8.89399C9.81645 9.10967 10.3497 9.62059 10.6102 10.287C10.9033 11.0365 10.7535 11.904 10.2288 12.4968ZM17.4923 17.6278C17.8896 17.3921 18.8119 17.3576 19.4852 17.3325C19.7551 17.3224 20.01 17.3128 20.2377 17.2927C20.3579 17.2821 20.4914 17.2841 20.6173 17.2944C20.561 17.4465 20.5428 17.6135 20.5672 17.7791C20.61 18.0705 20.7805 18.3236 21.0271 18.4626C21.1942 18.5569 21.4268 18.7204 21.6731 18.8935C22.3693 19.3827 23.1586 19.9372 23.9 19.9869C24.5742 20.033 24.9494 19.628 25.1101 19.4555C25.1229 19.4418 25.135 19.4281 25.1478 19.4156C25.2384 19.3379 25.3232 19.2337 25.3862 19.1079C25.5287 19.1508 25.6784 19.1936 25.8318 19.2374C26.3593 19.3879 27.3411 19.6681 27.5581 19.9104C27.9434 20.3409 28.2437 21.1604 28.5088 21.8833C28.6427 22.2487 28.7692 22.5935 28.9111 22.9133C28.972 23.0504 29.032 23.1918 29.0929 23.3349C29.504 24.3013 29.9699 25.3967 30.9584 26.0777C31.4066 26.3865 31.956 26.4753 32.4408 26.5537C32.4995 26.5632 32.5666 26.5741 32.6349 26.5859C32.3471 27.009 31.9374 27.4111 31.5045 27.836C30.4017 28.9185 29.0291 30.2658 29.6612 32.4151C29.9596 33.4299 29.9735 33.5396 29.4937 34.0897C29.4283 34.1647 29.3674 34.2331 29.3103 34.2971C28.8994 34.7582 28.5749 35.1223 28.3062 36.0144C28.2281 36.2734 28.127 36.3934 27.9434 36.6113C27.7966 36.7856 27.6137 37.0027 27.445 37.3069C27.243 37.6714 27.1762 38.0224 27.1226 38.3044C27.0698 38.5819 27.0398 38.7211 26.9365 38.8548C26.7012 39.1593 26.2624 39.6014 25.8118 39.9031C25.3931 40.1833 25.1486 40.2216 25.0653 40.2163C24.9703 40.1089 24.626 39.6385 24.1057 38.011C23.9774 37.6094 23.7994 37.1963 23.6273 36.7967C23.2478 35.9159 22.8556 35.0051 23.0464 34.3826C23.0689 34.3092 23.0912 34.2375 23.1131 34.1673C23.418 33.1879 23.7057 32.2631 23.1726 30.9166C23.0103 30.5065 22.7519 30.2069 22.5241 29.9425C22.3766 29.7715 22.2096 29.5777 22.1838 29.4661C22.1525 29.33 22.1534 29.1729 22.1546 28.9911C22.1576 28.5004 22.1623 27.7591 21.463 27.0689C20.4771 26.0963 19.3275 26.3959 18.5667 26.5942C18.333 26.6551 18.1122 26.7127 17.9166 26.737C16.6651 26.8915 15.5477 26.3939 14.8501 25.3707C14.1204 24.3005 14.0145 22.8604 14.5738 21.6124C14.8445 21.0086 15.2535 20.5234 15.7271 19.9619C15.8306 19.8391 15.935 19.7154 16.0394 19.5886C16.2131 19.3775 16.4043 19.0917 16.6064 18.789C16.8478 18.428 17.2972 17.7557 17.4923 17.6278Z" fill="#15136B"/>
</svg>
