<svg width="23" height="23" viewBox="0 0 23 23" fill="none" xmlns="http://www.w3.org/2000/svg">
<path d="M15.2461 11.6177L23 16.5195V6.50879L15.2461 11.6177Z" fill="white" fill-opacity="0.56"/>
<path d="M0 6.50879V16.5195L7.75388 11.6177L0 6.50879Z" fill="white" fill-opacity="0.56"/>
<path d="M21.5625 3.59375H1.4375C0.720188 3.59375 0.150938 4.1285 0.0431252 4.81706L11.5 12.3654L22.9569 4.81706C22.8491 4.1285 22.2798 3.59375 21.5625 3.59375Z" fill="white" fill-opacity="0.56"/>
<path d="M13.9294 12.4863L11.8953 13.8261C11.7746 13.9051 11.638 13.9439 11.5 13.9439C11.362 13.9439 11.2254 13.9051 11.1047 13.8261L9.07063 12.4849L0.0460014 18.1932C0.156689 18.876 0.723064 19.4064 1.4375 19.4064H21.5625C22.2769 19.4064 22.8433 18.876 22.954 18.1932L13.9294 12.4863Z" fill="white" fill-opacity="0.56"/>
</svg>
