<svg width="47" height="47" viewBox="0 0 47 47" fill="none" xmlns="http://www.w3.org/2000/svg">
<g clip-path="url(#clip0_64_134)">
<path d="M46.9916 17.9679C46.9867 17.914 46.9759 17.8606 46.9594 17.8089C46.9487 17.7628 46.9337 17.7177 46.9148 17.6742C46.8929 17.6317 46.8666 17.5915 46.8365 17.5543C46.8063 17.5101 46.7713 17.4695 46.7323 17.4328C46.7197 17.4219 46.7143 17.4069 46.701 17.396L39.1673 11.545V5.481C39.1673 4.18311 38.1151 3.13088 36.8172 3.13088H28.3277L24.9286 0.491673C24.0889 -0.16324 22.9114 -0.16324 22.0717 0.491673L18.6718 3.13088H10.1823C8.88446 3.13088 7.83223 4.18301 7.83223 5.481V11.5451L0.300923 17.3961C0.287611 17.4071 0.282103 17.422 0.269618 17.4329C0.230603 17.4695 0.195626 17.5102 0.165424 17.5544C0.135313 17.5916 0.109057 17.6317 0.0871169 17.6743C0.068114 17.7177 0.0532422 17.7629 0.0425014 17.809C0.0261607 17.86 0.0154199 17.9125 0.0103708 17.9657C0.0103708 17.9822 0.00100708 17.9963 0.00100708 18.0127V44.6496C0.0021087 45.1479 0.163312 45.6326 0.460841 46.0322C0.465523 46.0393 0.466349 46.0479 0.471765 46.0542C0.477273 46.0604 0.489024 46.0675 0.496827 46.0761C0.936924 46.6552 1.6214 46.9966 2.34874 46.9997H44.6509C45.3811 46.9975 46.0684 46.6545 46.509 46.0723C46.5153 46.0645 46.5247 46.0621 46.5302 46.0543C46.5357 46.0465 46.5364 46.0394 46.5412 46.0323C46.8387 45.6326 46.9999 45.1479 47.001 44.6497V18.0149C47.0009 17.9985 46.9924 17.9844 46.9916 17.9679ZM23.0297 1.72778C23.3033 1.51039 23.6907 1.51039 23.9642 1.72778L25.7714 3.13078H21.2279L23.0297 1.72778ZM2.54611 45.433L23.0298 29.5219C23.3035 29.3049 23.6907 29.3049 23.9643 29.5219L44.4534 45.433H2.54611ZM45.4342 44.2117L24.9286 28.2857C24.0887 27.6313 22.9115 27.6313 22.0717 28.2857L1.56531 44.2117V19.208L14.4025 29.1765C14.7445 29.4417 15.2368 29.3794 15.502 29.0374C15.7672 28.6953 15.7049 28.2031 15.3629 27.9379L2.32129 17.8112L7.83232 13.5285V19.5816C7.83232 20.0143 8.18309 20.365 8.61566 20.365C9.04832 20.365 9.39901 20.0142 9.39901 19.5816V5.4809C9.39901 5.04824 9.74969 4.69756 10.1823 4.69756H36.817C37.2497 4.69756 37.6003 5.04824 37.6003 5.4809V19.5816C37.6003 20.0143 37.951 20.365 38.3837 20.365C38.8163 20.365 39.167 20.0142 39.167 19.5816V13.5285L44.6781 17.8112L31.6138 27.9559C31.3891 28.1262 31.2731 28.4042 31.3104 28.6838C31.3477 28.9633 31.5323 29.2012 31.7938 29.3067C32.0553 29.4122 32.3534 29.369 32.5742 29.1936L45.434 19.208V44.2117H45.4342Z" fill="#15136B"/>
<path d="M32.8993 18.7986V15.6651C32.8993 10.4734 28.6906 6.26465 23.4988 6.26465C18.3071 6.26465 14.0984 10.4734 14.0984 15.6651C14.0984 20.8569 18.3071 25.0656 23.4988 25.0656C23.9315 25.0656 24.2822 24.7149 24.2822 24.2823C24.2822 23.8496 23.9315 23.4989 23.4988 23.4989C19.1724 23.4989 15.6651 19.9916 15.6651 15.6652C15.6651 11.3388 19.1724 7.83152 23.4988 7.83152C27.8252 7.83152 31.3325 11.3388 31.3325 15.6652V18.7987C31.3325 19.664 30.6311 20.3655 29.7657 20.3655C28.9004 20.3655 28.199 19.664 28.199 18.7987V15.6652C28.199 15.2326 27.8483 14.8819 27.4156 14.8819C26.983 14.8819 26.6323 15.2326 26.6323 15.6652C26.6323 17.3958 25.2294 18.7987 23.4988 18.7987C21.7683 18.7987 20.3654 17.3958 20.3654 15.6652C20.3654 13.9347 21.7683 12.5318 23.4988 12.5318C23.9315 12.5318 24.2822 12.1811 24.2822 11.7484C24.2822 11.3158 23.9315 10.9651 23.4988 10.9651C21.3952 10.9604 19.5446 12.354 18.9681 14.3771C18.3915 16.4003 19.2294 18.5601 21.0195 19.665C22.8097 20.7699 25.1159 20.5509 26.666 19.1286C26.8365 20.7853 28.2764 22.0171 29.9395 21.929C31.6027 21.8409 32.9045 20.464 32.8993 18.7986Z" fill="#15136B"/>
</g>
<defs>
<clipPath id="clip0_64_134">
<rect width="47" height="47" fill="white"/>
</clipPath>
</defs>
</svg>
