<svg width="64" height="64" viewBox="0 0 64 64" fill="none" xmlns="http://www.w3.org/2000/svg">
<circle cx="32" cy="32" r="32" fill="white" fill-opacity="0.9"/>
<g clip-path="url(#clip0_221_4)">
<path d="M37.7143 35.2286H36.3886L35.8915 34.7314C37.5486 32.9086 38.5429 30.4229 38.5429 27.7714C38.5429 21.8057 33.7371 17 27.7714 17C21.8057 17 17 21.8057 17 27.7714C17 33.7371 21.8057 38.5429 27.7714 38.5429C30.4229 38.5429 32.9086 37.5486 34.7314 35.8914L35.2286 36.3885V37.7142L43.5143 46L46 43.5143L37.7143 35.2286ZM27.7714 35.2286C23.6286 35.2286 20.3143 31.9143 20.3143 27.7714C20.3143 23.6286 23.6286 20.3143 27.7714 20.3143C31.9143 20.3143 35.2286 23.6286 35.2286 27.7714C35.2286 31.9143 31.9143 35.2286 27.7714 35.2286Z" fill="#474646"/>
</g>
<defs>
<clipPath id="clip0_221_4">
<rect width="29" height="29" fill="white" transform="translate(17 17)"/>
</clipPath>
</defs>
</svg>
