<svg width="47" height="47" viewBox="0 0 47 47" fill="none" xmlns="http://www.w3.org/2000/svg">
<g clip-path="url(#clip0_64_143)">
<path d="M45.767 36.2573L36.254 29.9132C35.0468 29.1146 33.4286 29.3774 32.5361 30.5171L29.765 34.0799C29.4089 34.5495 28.7616 34.6857 28.2464 34.3995L27.7193 34.1089C25.9719 33.1565 23.7977 31.9707 19.4172 27.5886C15.0367 23.2065 13.8485 21.0307 12.8961 19.2866L12.6071 18.7595C12.3169 18.2444 12.4506 17.5943 12.9203 17.2353L16.4808 14.4651C17.62 13.5725 17.8831 11.9547 17.0855 10.7471L10.7414 1.23418C9.92388 0.00446976 8.28372 -0.364683 7.01812 0.396109L3.04014 2.78569C1.79023 3.5205 0.873226 4.71056 0.481404 6.1065C-0.951058 11.3258 0.126569 20.3336 13.3959 33.6045C23.9513 44.1591 31.8093 46.9975 37.2104 46.9975C38.4534 47.0028 39.6916 46.8411 40.8916 46.5166C42.2878 46.1253 43.478 45.2082 44.2124 43.9579L46.6043 39.9823C47.3662 38.7164 46.9973 37.0753 45.767 36.2573ZM45.2547 39.1787L42.8683 43.1566C42.341 44.0591 41.4849 44.7226 40.4795 45.0082C35.6611 46.3311 27.2431 45.2354 14.5041 32.4963C1.76499 19.7572 0.669376 11.34 1.99225 6.5209C2.27824 5.51422 2.94257 4.65705 3.84609 4.12893L7.82406 1.74248C8.3732 1.41206 9.08508 1.57222 9.43982 2.10585L12.886 7.27976L15.7785 11.618C16.1249 12.1418 16.011 12.8438 15.5169 13.2314L11.9556 16.0016C10.8718 16.8304 10.5623 18.3298 11.2296 19.5199L11.5124 20.0337C12.5134 21.8695 13.7579 24.1534 18.3013 28.6961C22.8448 33.2387 25.1279 34.4833 26.9629 35.4842L27.4774 35.7677C28.6674 36.4349 30.167 36.1255 30.9957 35.0417L33.7659 31.4804C34.1536 30.9865 34.8553 30.8728 35.3793 31.2189L44.8915 37.5629C45.4255 37.9174 45.5856 38.6296 45.2547 39.1787Z" fill="#15136B"/>
<path d="M26.6319 7.83737C33.982 7.84554 39.9384 13.802 39.9466 21.1521C39.9466 21.5847 40.2972 21.9353 40.7298 21.9353C41.1624 21.9353 41.513 21.5847 41.513 21.1521C41.5039 12.9372 34.8468 6.27999 26.6319 6.271C26.1993 6.271 25.8487 6.62161 25.8487 7.05418C25.8487 7.48676 26.1993 7.83737 26.6319 7.83737Z" fill="#15136B"/>
<path d="M26.6319 12.5366C31.3878 12.5422 35.2417 16.3962 35.2473 21.152C35.2473 21.5846 35.598 21.9352 36.0305 21.9352C36.4631 21.9352 36.8137 21.5846 36.8137 21.152C36.8072 15.5314 32.2524 10.9766 26.6319 10.9702C26.1993 10.9702 25.8487 11.3208 25.8487 11.7534C25.8487 12.186 26.1993 12.5366 26.6319 12.5366Z" fill="#15136B"/>
<path d="M26.6319 17.2358C28.7936 17.2384 30.5454 18.9902 30.548 21.1519C30.548 21.5845 30.8987 21.9351 31.3312 21.9351C31.7637 21.9351 32.1144 21.5845 32.1144 21.1519C32.1109 18.1255 29.6584 15.6728 26.6319 15.6694C26.1993 15.6694 25.8487 16.02 25.8487 16.4526C25.8487 16.8852 26.1993 17.2358 26.6319 17.2358Z" fill="#15136B"/>
</g>
<defs>
<clipPath id="clip0_64_143">
<rect width="47" height="47" fill="white"/>
</clipPath>
</defs>
</svg>
