<svg width="15" height="15" viewBox="0 0 15 15" fill="none" xmlns="http://www.w3.org/2000/svg">
<path d="M14.9785 5.69589C14.9268 5.52909 14.7893 5.40754 14.6238 5.38235L9.9737 4.67398L7.89407 0.256782C7.82007 0.0995373 7.66728 0 7.50003 0C7.33274 0 7.17999 0.0995373 7.10596 0.256782L5.02624 4.67398L0.376255 5.38235C0.210757 5.40754 0.0732088 5.52909 0.0215293 5.69586C-0.0301795 5.86266 0.0129453 6.04573 0.13274 6.16812L3.49742 9.60644L2.70324 14.4615C2.67494 14.6343 2.74273 14.8089 2.87805 14.912C2.9546 14.9703 3.04528 15 3.13639 15C3.20635 15 3.27655 14.9825 3.34082 14.9471L7.5 12.6548L11.659 14.9471C11.8071 15.0287 11.9865 15.0151 12.1218 14.912C12.2571 14.8089 12.3249 14.6343 12.2967 14.4614L11.5022 9.60644L14.8673 6.16809C14.9871 6.04573 15.0302 5.86266 14.9785 5.69589Z" fill="#F06744"/>
</svg>
