<svg width="440" height="378" viewBox="0 0 440 378" fill="none" xmlns="http://www.w3.org/2000/svg">
<path d="M402 0L466.952 37.5V112.5L402 150L337.048 112.5V37.5L402 0Z" fill="#ED5730"/>
<path d="M206 113L270.952 150.5V225.5L206 263L141.048 225.5V150.5L206 113Z" fill="#ED5730"/>
<path d="M205.548 264.789L270 227.577L334.452 264.789V339.211L270 376.423L205.548 339.211V264.789Z" stroke="#ED5730"/>
<path d="M10.5481 150.789L75 113.577L139.452 150.789V225.211L75 262.423L10.5481 225.211V150.789Z" stroke="#ED5730"/>
<path d="M402 228L466.952 265.5V340.5L402 378L337.048 340.5V265.5L402 228Z" fill="#ED5730"/>
<path d="M403.548 151.789L468 114.577L532.452 151.789V226.211L468 263.423L403.548 226.211V151.789Z" stroke="#ED5730"/>
<path d="M272.548 151.789L337 114.577L401.452 151.789V226.211L337 263.423L272.548 226.211V151.789Z" stroke="#ED5730"/>
</svg>
