<svg width="390" height="492" viewBox="0 0 390 492" fill="none" xmlns="http://www.w3.org/2000/svg">
<path d="M53 0L117.952 37.5V112.5L53 150L-11.9519 112.5V37.5L53 0Z" fill="#15136B"/>
<path d="M53.5481 150.789L118 113.577L182.452 150.789V225.211L118 262.423L53.5481 225.211V150.789Z" stroke="#15136B"/>
<path d="M249 113L313.952 150.5V225.5L249 263L184.048 225.5V150.5L249 113Z" fill="#15136B"/>
<path d="M53 226L117.952 264V340L53 378L-11.9519 340V264L53 226Z" fill="#15136B"/>
<path d="M53.5481 379.789L118 342.577L182.452 379.789V454.211L118 491.423L53.5481 454.211V379.789Z" stroke="#15136B"/>
<path d="M-77.4519 150.789L-13 113.577L51.4519 150.789V225.211L-13 262.423L-77.4519 225.211V150.789Z" stroke="#15136B"/>
<path d="M250.548 37.7887L315 0.57735L379.452 37.7887V112.211L315 149.423L250.548 112.211V37.7887Z" stroke="#15136B"/>
</svg>
