<svg width="24" height="19" viewBox="0 0 24 19" fill="none" xmlns="http://www.w3.org/2000/svg">
<path d="M22.3981 14.0082L17.7424 11.5571C17.1516 11.2485 16.3597 11.35 15.9229 11.7904L14.5668 13.1669C14.3925 13.3484 14.0757 13.401 13.8235 13.2904L13.5656 13.1781C12.7104 12.8102 11.6464 12.352 9.50256 10.6589C7.35874 8.96584 6.77728 8.12518 6.31116 7.45129L6.16971 7.24763C6.02772 7.04862 6.09312 6.79745 6.32301 6.65875L8.06549 5.58844C8.62302 5.24358 8.7518 4.61852 8.36141 4.15195L5.25665 0.476468C4.85656 0.00134965 4.05387 -0.141278 3.43449 0.152666L1.48768 1.07592C0.875984 1.35982 0.427205 1.81962 0.235448 2.35896C-0.465594 4.37554 0.061793 7.85584 6.55574 12.9832C11.7215 17.0612 15.5672 18.1578 18.2105 18.1578C18.8188 18.1599 19.4248 18.0974 20.012 17.9721C20.6953 17.8208 21.2778 17.4665 21.6372 16.9835L22.8078 15.4474C23.1807 14.9583 23.0001 14.3242 22.3981 14.0082ZM22.1474 15.1369L20.9794 16.6739C20.7214 17.0225 20.3024 17.2789 19.8104 17.3892C17.4523 17.9004 13.3325 17.477 7.09808 12.5551C0.863632 7.63314 0.327441 4.381 0.97485 2.51907C1.11482 2.13013 1.43994 1.79895 1.88211 1.5949L3.82892 0.672856C4.09767 0.545193 4.44605 0.607074 4.61966 0.81325L6.30622 2.81227L7.72177 4.48841C7.8913 4.6908 7.8356 4.96204 7.59376 5.1118L5.85088 6.18211C5.32048 6.5023 5.16902 7.08164 5.49557 7.54144L5.63397 7.73995C6.12385 8.44926 6.7329 9.33166 8.95645 11.0868C11.18 12.8419 12.2973 13.3228 13.1954 13.7095L13.4472 13.819C14.0296 14.0768 14.7635 13.9573 15.169 13.5385L16.5247 12.1626C16.7145 11.9718 17.0579 11.9278 17.3144 12.0615L21.9696 14.5126C22.2309 14.6496 22.3093 14.9248 22.1474 15.1369Z" fill="#FF5429"/>
</svg>
