<svg width="41" height="41" viewBox="0 0 41 41" fill="none" xmlns="http://www.w3.org/2000/svg">
<path d="M35.1234 27.1572C36.8564 28.1603 37.6752 31.1209 37.8456 32.1792L39.1379 39.9509L40.4882 39.8096L39.197 32.0289C39.1697 31.8569 38.4861 27.7583 35.9297 26.288C35.0735 25.8317 34.1559 25.4524 33.1928 25.1581C33.1349 25.1228 33.0725 25.0948 33.0032 25.0758L32.441 24.9173C31.5916 24.6557 30.7046 24.4112 29.8529 24.1994L29.3271 24.0527C29.2749 24.0373 29.2215 24.0283 29.1659 24.0237C27.7418 23.6643 26.4914 23.399 25.8214 23.2596V22.0718C27.8553 20.9129 29.0636 19.0424 29.0614 17.0497V16.1353C29.2885 16.2014 29.5281 16.2358 29.7677 16.2385C30.9045 16.2385 31.8255 15.5043 31.8255 14.598V13.1349C31.8255 12.7375 31.6416 12.3545 31.3111 12.0594C31.5303 11.7805 31.6416 11.4564 31.6325 11.1287V10.504C31.6643 10.0486 31.4837 9.5995 31.1271 9.24188C30.942 9.08797 30.7046 8.97752 30.4435 8.92591C30.2822 7.44384 29.3998 3.09267 24.6926 1.3924H24.6517C23.4252 0.973214 22.109 0.748684 20.7769 0.731482H20.3851C19.1109 0.710659 17.8424 0.870002 16.6363 1.20136H16.6045C11.3919 2.72962 10.4527 7.37322 10.3051 8.91143C10.0428 8.96303 9.80428 9.07258 9.6203 9.2274C9.24668 9.58049 9.05134 10.0305 9.07519 10.4904V11.1332C9.06497 11.4609 9.17627 11.7841 9.39431 12.0612C9.06611 12.359 8.881 12.742 8.881 13.1395V14.6052C8.881 15.5115 9.80314 16.2449 10.9388 16.2449C11.1807 16.2449 11.418 16.2096 11.644 16.1416V17.0597C11.6486 19.0298 12.8308 20.8794 14.8272 22.0401V23.2596C12.4197 23.7603 10.0473 24.3678 7.72491 25.0821H7.69425C6.66536 25.389 5.68416 25.7901 4.7677 26.2736C2.21137 27.7583 1.52885 31.8524 1.50045 32.0154L0.209229 39.8006L1.55951 39.94L2.85073 32.1548C3.02335 31.0991 3.83988 28.1422 5.55129 27.1309C6.09527 26.8421 6.67217 26.5959 7.2752 26.3949V31.0584C6.28038 31.3499 5.02549 32.1657 5.02549 33.8877V39.883C5.02549 40.179 5.32644 40.4207 5.70006 40.4207H35.0292C35.4028 40.4207 35.7026 40.179 35.7026 39.883V33.8976C35.7026 32.1756 34.4398 31.3608 33.4529 31.0702V26.4066C34.04 26.6131 34.5976 26.8648 35.1234 27.1572ZM30.4877 13.1349V14.6025C30.4582 14.9122 30.1164 15.1439 29.728 15.1195C29.3828 15.0969 29.1079 14.8778 29.0795 14.6025V13.1349C29.05 12.8244 29.3385 12.5537 29.728 12.5274C30.1164 12.503 30.4582 12.7348 30.4877 13.0444C30.4923 13.0743 30.4923 13.1051 30.4877 13.1349ZM21.3072 1.83331C22.1283 1.8831 22.938 2.02524 23.7114 2.25158V4.97582C23.1549 5.6141 22.277 6.02423 21.3072 6.09847V1.83331ZM17.5539 2.1022C18.3352 1.92384 19.1427 1.82516 19.9581 1.80796V6.11295C18.9882 6.03871 18.1081 5.62768 17.5539 4.9894V2.1022ZM11.627 14.598C11.5963 14.9076 11.2545 15.1403 10.8672 15.115C10.522 15.0941 10.2472 14.875 10.2188 14.598V13.1349C10.187 12.8244 10.4777 12.5537 10.8672 12.5274C11.2545 12.503 11.5963 12.7348 11.627 13.0444C11.6304 13.0743 11.6304 13.1051 11.627 13.1349V14.598ZM10.9206 11.4917C10.7923 11.4917 10.6674 11.5017 10.5436 11.5198C10.4391 11.4084 10.3891 11.2681 10.4073 11.1287V10.4768C10.3994 10.3057 10.4527 10.1373 10.5652 9.99152C10.5913 9.97432 10.6253 9.96798 10.6606 9.97161H10.9206C11.2931 9.97161 11.5963 9.72987 11.5963 9.43201C11.5963 9.18123 11.6849 4.40816 16.2002 2.53496V5.11977C16.2002 5.19944 16.2229 5.2773 16.2661 5.34883C16.3126 5.42397 17.4131 7.21478 20.627 7.21478C23.8397 7.21478 24.9447 5.42126 24.989 5.34883C25.0298 5.2773 25.0537 5.19944 25.0503 5.11977V2.7939C29.008 4.80742 29.1023 9.19118 29.1023 9.43201C29.1023 9.72987 29.4055 9.97161 29.7768 9.97161H30.038C30.105 9.97161 30.1198 9.97161 30.1323 9.99152C30.247 10.1409 30.3004 10.3129 30.2901 10.4886V11.1287C30.3083 11.2699 30.2561 11.4111 30.1459 11.5198C29.4838 11.4157 28.799 11.5822 28.3243 11.9661H12.3822C11.9949 11.6592 11.4691 11.4908 10.9252 11.4953L10.9206 11.4917ZM12.9773 17.0597V13.0426H27.7384V17.0597C27.7327 19.8808 24.8629 22.1641 21.3254 22.1614H19.3812C15.847 22.1605 12.9818 19.8781 12.9773 17.0597ZM24.4881 22.6965V23.4923L20.3487 27.7122L16.1627 23.4923V22.6738C17.1723 23.0478 18.2705 23.2406 19.3812 23.2415H21.3254C22.4167 23.2415 23.4956 23.055 24.4881 22.6965ZM12.2618 24.9608C13.5485 24.6475 14.6569 24.4085 15.2315 24.289L20.3578 29.4559L25.4262 24.289C26.0088 24.4112 27.1353 24.6475 28.4504 24.9744V31.1381H12.247L12.2618 24.9608ZM34.3546 33.8976V39.3542H6.37463V33.8976C6.37463 32.2734 7.88277 32.0398 8.04403 32.0172C8.37904 31.9801 8.62548 31.7519 8.62548 31.4839V25.9576C9.36705 25.7276 10.1552 25.5094 10.9206 25.3121V31.6768C10.9206 31.9746 11.2227 32.2164 11.5963 32.2164H29.1465C29.519 32.2164 29.8223 31.9746 29.8223 31.6768V25.3229L32.0947 25.9576V31.4839C32.0947 31.7528 32.3457 31.9828 32.6795 32.0172C32.7488 32.0244 34.3546 32.2164 34.3546 33.8976Z" fill="#ED5730"/>
</svg>
