<svg width="41" height="41" viewBox="0 0 41 41" fill="none" xmlns="http://www.w3.org/2000/svg">
<g clip-path="url(#clip0_8_78)">
<path d="M5.37053 33.7823C4.25824 33.7823 3.35658 34.6708 3.35658 35.7669C3.35658 36.8629 4.25824 37.7514 5.37053 37.7514C6.48282 37.7514 7.38448 36.8629 7.38448 35.7669C7.38331 34.6713 6.48232 33.7835 5.37053 33.7823ZM5.37053 36.4284C4.9998 36.4284 4.69922 36.1322 4.69922 35.7669C4.69922 35.4015 4.9998 35.1054 5.37053 35.1054C5.74127 35.1054 6.04185 35.4015 6.04185 35.7669C6.04151 36.132 5.7411 36.4281 5.37053 36.4284Z" fill="#ED5730"/>
<path d="M39.608 7.3216C39.6079 7.3216 39.6077 7.3216 39.6077 7.3216H37.5937C29.256 7.3216 23.6128 5.0664 22.1105 1.13475C22.0021 0.881723 21.7538 0.714359 21.4752 0.706421C21.1932 0.709232 20.9431 0.885527 20.8492 1.14765C19.382 5.24468 14.3999 7.3216 6.04185 7.3216H3.35658C2.98593 7.32152 2.68535 7.61754 2.68527 7.98279C2.68527 7.98287 2.68527 7.98303 2.68527 7.98312V20.552H0.671316C0.300666 20.5519 8.39321e-05 20.8479 1.75756e-08 21.2131C1.75756e-08 21.2132 1.75756e-08 21.2134 1.75756e-08 21.2135V39.736C-8.3897e-05 40.1012 0.30033 40.3974 0.670981 40.3975C0.671065 40.3975 0.671232 40.3975 0.671316 40.3975H34.4433C37.6647 40.394 40.2753 37.8217 40.279 34.6473V7.98312C40.2791 7.61788 39.9786 7.32168 39.608 7.3216ZM8.72711 39.0744H1.34263V21.875H8.72711V39.0744ZM36.2541 37.5802C36.1251 38.4602 35.3451 39.1039 34.4433 39.0744H10.0697V21.875H18.7969C19.0807 21.875 19.3338 21.6991 19.4292 21.4357L22.0214 14.2837C22.423 13.1757 23.66 12.5983 24.7844 12.994C25.8175 13.3576 26.4104 14.4261 26.1637 15.4794L24.8558 21.0648C24.7723 21.4206 24.9974 21.7757 25.3585 21.858C25.4082 21.8693 25.4591 21.875 25.5101 21.8749H34.4332C35.3355 21.8453 36.1157 22.4898 36.2436 23.3704C36.3302 24.2525 35.6957 25.0449 34.8049 25.167C34.4254 25.2172 34.1589 25.561 34.2099 25.9351C34.2513 26.2395 34.4938 26.4792 34.8026 26.5211C35.721 26.6464 36.3624 27.4816 36.2352 28.3866C36.1208 29.2007 35.4171 29.8087 34.583 29.8139C34.2123 29.8142 33.912 30.1107 33.9124 30.476C33.9127 30.8414 34.2136 31.1372 34.5844 31.1369C35.5111 31.143 36.2574 31.8884 36.2512 32.8016C36.2455 33.6226 35.6295 34.3152 34.8043 34.4284C34.4248 34.479 34.1588 34.823 34.21 35.197C34.2517 35.5012 34.4941 35.7406 34.8026 35.7824C35.6977 35.9007 36.3383 36.6942 36.2541 37.5802ZM38.9363 34.6473C38.9363 35.8453 38.4419 36.9917 37.5667 37.8231C37.5724 37.7821 37.5868 37.7439 37.5908 37.7024C37.6864 36.7052 37.2666 35.7275 36.4736 35.1009C37.7685 34.0702 37.9703 32.2004 36.9244 30.9244C36.7886 30.7588 36.6352 30.608 36.4667 30.4747C37.7647 29.4477 37.972 27.5784 36.9299 26.2994C36.794 26.1327 36.6403 25.9809 36.4714 25.8467C37.2596 25.2188 37.676 24.2434 37.5803 23.249C37.3852 21.6894 36.0276 20.5261 34.4332 20.552H26.3538L27.4722 15.7766C27.9073 13.9183 26.7313 12.0642 24.8454 11.6354C24.7287 11.6089 24.6107 11.5883 24.4919 11.5737C22.8592 11.3611 21.2994 12.3071 20.7567 13.8392L18.3238 20.552H4.0279V8.64463H6.04185C14.1373 8.64463 19.3279 6.71887 21.5048 2.91581C24.5703 7.86429 32.7476 8.64463 37.5937 8.64463H38.9363V34.6473Z" fill="#ED5730"/>
<path d="M19.7098 6.81323C17.2267 8.84947 14.099 9.96545 10.8686 9.96768H6.04185C5.67119 9.9676 5.37061 10.2636 5.37053 10.6289C5.37053 10.6289 5.37053 10.6291 5.37053 10.6292V17.2444H6.71316V11.2907H10.8686C14.4129 11.2881 17.8447 10.0638 20.5693 7.82999L19.7098 6.81323Z" fill="#ED5730"/>
<path d="M36.9227 9.96768C36.9227 9.96768 36.9225 9.96768 36.9224 9.96768H32.0956C28.8653 9.96545 25.7374 8.84947 23.2545 6.81323L22.395 7.83007C25.1197 10.0639 28.5513 11.2882 32.0957 11.2908H36.2511V17.2445H37.5937V10.6293C37.5938 10.264 37.2934 9.96776 36.9227 9.96768Z" fill="#ED5730"/>
</g>
<defs>
<clipPath id="clip0_8_78">
<rect width="40.279" height="39.6911" fill="white" transform="translate(0 0.706421)"/>
</clipPath>
</defs>
</svg>
