<svg width="44" height="43" viewBox="0 0 44 43" fill="none" xmlns="http://www.w3.org/2000/svg">
<g clip-path="url(#clip0_8_96)">
<path d="M19.9037 17.2941V18.3774H21.3414C21.3543 18.3774 21.3672 18.3774 21.3797 18.3778C21.5165 18.381 22.7526 18.4269 24.0047 19.0923C25.7777 20.0344 26.7539 21.7473 26.7539 23.916C26.7539 26.8204 24.3968 29.1912 21.4689 29.2726C21.3833 29.2856 21.2968 29.2944 21.2079 29.2944C19.3282 29.2944 17.5318 28.2882 16.5192 26.6687C16.029 25.8851 16.2764 24.8581 17.0719 24.3753C17.8667 23.8926 18.909 24.1361 19.3992 24.9199C19.7692 25.5118 20.4438 25.918 21.1042 25.9571C21.1732 25.9486 21.2429 25.9428 21.314 25.9428C22.4484 25.9428 23.3711 25.0335 23.3711 23.916C23.3711 22.7252 22.8567 22.2897 22.4699 22.0654C21.9611 21.7711 21.3999 21.718 21.2994 21.7109H18.2123C17.2781 21.7109 16.5209 20.9647 16.5209 20.0441V15.6274C16.5209 14.7068 17.2781 13.9606 18.2123 13.9606H25.0625C25.9967 13.9606 26.7539 14.7068 26.7539 15.6274C26.7539 16.548 25.9967 17.2941 25.0625 17.2941H19.9037ZM37.1576 6.54213C33.0686 2.51272 27.6316 0.293579 21.8488 0.293579C20.9146 0.293579 20.1574 1.03969 20.1574 1.96029C20.1574 2.88089 20.9146 3.62701 21.8488 3.62701C31.9212 3.62701 40.116 11.7021 40.116 21.6275C40.116 31.5529 31.9212 39.628 21.8488 39.628C11.7764 39.628 3.58166 31.5529 3.58166 21.6275C3.58166 20.7069 2.82449 19.9608 1.89025 19.9608C0.956019 19.9608 0.198853 20.7069 0.198853 21.6275C0.198853 27.3259 2.45086 32.6835 6.53996 36.7129C10.6291 40.7423 16.066 42.9615 21.8488 42.9615C27.6316 42.9615 33.0686 40.7423 37.1576 36.7129C41.2467 32.6835 43.4988 27.3259 43.4988 21.6275C43.4988 15.9291 41.2467 10.5715 37.1576 6.54213ZM15.6752 4.5437C16.6094 4.5437 17.3666 3.79759 17.3666 2.87699C17.3666 1.95639 16.6094 1.21027 15.6752 1.21027C14.7409 1.21027 13.9838 1.95639 13.9838 2.87699C13.9838 3.79759 14.7409 4.5437 15.6752 4.5437ZM10.0936 7.37712C11.0278 7.37712 11.785 6.631 11.785 5.7104C11.785 4.7898 11.0278 4.04369 10.0936 4.04369C9.15932 4.04369 8.40215 4.7898 8.40215 5.7104C8.40215 6.631 9.15932 7.37712 10.0936 7.37712ZM5.69591 11.7106C6.63015 11.7106 7.38731 10.9645 7.38731 10.0439C7.38731 9.12326 6.63015 8.37714 5.69591 8.37714C4.76167 8.37714 4.00451 9.12326 4.00451 10.0439C4.00451 10.9645 4.76167 11.7106 5.69591 11.7106ZM2.82053 17.2107C3.75476 17.2107 4.51193 16.4646 4.51193 15.544C4.51193 14.6234 3.75476 13.8773 2.82053 13.8773C1.88629 13.8773 1.12912 14.6234 1.12912 15.544C1.12912 16.4646 1.88629 17.2107 2.82053 17.2107Z" fill="#ED5730" fill-opacity="0.8"/>
</g>
<defs>
<clipPath id="clip0_8_96">
<rect width="43.2999" height="42.6679" fill="white"/>
</clipPath>
</defs>
</svg>
