<svg width="48" height="47" viewBox="0 0 48 47" fill="none" xmlns="http://www.w3.org/2000/svg">
<g clip-path="url(#clip0_8_106)">
<path d="M40.0364 15.0487L37.8616 12.4488C37.5629 12.0918 37.3813 11.66 37.3368 11.2L37.0088 7.84609C36.8385 6.1035 35.4312 4.71681 33.6628 4.54896L30.2593 4.22614C29.7924 4.18191 29.3542 4.00292 28.992 3.709L26.3535 1.56558C24.9827 0.45226 22.9927 0.45226 21.6218 1.56558L18.9834 3.709C18.6215 4.00292 18.1833 4.18191 17.7161 4.22614L14.3125 4.54896C12.5441 4.71681 11.1372 6.1035 10.9665 7.84609L10.6389 11.2C10.5941 11.66 10.4124 12.0918 10.1141 12.4488L7.93897 15.0487C6.80916 16.3996 6.80916 18.3605 7.93897 19.7113L10.1141 22.3113C10.4124 22.6682 10.5941 23.1001 10.6389 23.5601L10.9665 26.914C11.1369 28.6566 12.5441 30.0429 14.3125 30.2111L16.393 30.4086L11.45 42.0478C11.316 42.3647 11.3765 42.7213 11.608 42.9783C11.8394 43.235 12.1911 43.3366 12.5254 43.243L16.8139 42.0499C16.8326 42.0447 16.8506 42.0527 16.8591 42.0676L19.0067 45.9157C19.1664 46.2023 19.4651 46.375 19.7937 46.375C19.8093 46.375 19.8248 46.3747 19.8407 46.374C20.1881 46.3566 20.4885 46.1497 20.626 45.8307L25.8446 33.5413C26.0217 33.441 26.192 33.3258 26.3539 33.1945L28.9923 31.0514C29.3263 30.7798 29.726 30.6081 30.1525 30.5482L34.8792 41.6776L31.5343 40.7471C30.8982 40.5706 30.232 40.8453 29.9129 41.4154L28.2382 44.4162L26.0192 39.1908C25.8725 38.8457 25.4704 38.6835 25.1201 38.8276C24.7703 38.9718 24.6052 39.3684 24.7519 39.7132L27.3511 45.8342C27.4872 46.1497 27.7872 46.3566 28.135 46.374C28.1509 46.3747 28.1664 46.3754 28.182 46.3754C28.5106 46.3754 28.8093 46.2023 28.969 45.9157L31.1162 42.0683C31.1251 42.0527 31.1435 42.0454 31.1615 42.0499L35.4493 43.243C35.7843 43.3363 36.1363 43.235 36.3674 42.9783C36.5989 42.7213 36.6593 42.365 36.525 42.0471L31.5824 30.4082L33.6628 30.2108C35.4312 30.0429 36.8385 28.6566 37.0088 26.914L37.3368 23.5597C37.3813 23.0997 37.5629 22.6682 37.8616 22.3113L40.0364 19.7113C41.1665 18.3605 41.1665 16.3996 40.0364 15.0487ZM19.7375 44.4162L18.0624 41.4147C17.7437 40.845 17.0768 40.5702 16.441 40.7471L13.0965 41.6773L17.8228 30.5482C18.2497 30.6081 18.6494 30.7798 18.9834 31.0511L21.6218 33.1945C22.3074 33.7513 23.1475 34.0296 23.9879 34.0296C24.0419 34.0296 24.0956 34.0282 24.1497 34.0257L19.7375 44.4162ZM38.9765 18.8505L36.8017 21.4504C36.3282 22.016 36.0405 22.7006 35.9691 23.4302L35.6415 26.7841C35.5341 27.8831 34.6467 28.7576 33.5314 28.8634L30.5416 29.1472C30.53 29.1479 30.5179 29.149 30.5063 29.1507L30.1278 29.1866C29.3871 29.2569 28.6923 29.5404 28.1184 30.0067L25.4799 32.1498C24.6155 32.8522 23.3602 32.8522 22.4958 32.1498L19.8573 30.0067C19.2834 29.5404 18.5886 29.2566 17.8479 29.1866L17.4677 29.1504C17.4571 29.149 17.4468 29.1483 17.4362 29.1476L14.4443 28.8634C13.329 28.7576 12.4416 27.8831 12.3342 26.7841L12.0066 23.4305C11.9352 22.7006 11.6475 22.016 11.174 21.4504L8.99917 18.8505C8.28636 17.9983 8.28636 16.7614 8.99917 15.9096L11.174 13.3096C11.6475 12.7441 11.9352 12.0595 12.0066 11.3295L12.3342 7.97564C12.4416 6.87659 13.329 6.00216 14.4443 5.8963L17.8479 5.57348C18.5886 5.50313 19.2834 5.21967 19.8573 4.75337L22.4958 2.6103C22.928 2.25928 23.4581 2.08342 23.9879 2.08342C24.5176 2.08342 25.0477 2.25893 25.4799 2.6103L28.1184 4.75337C28.6923 5.21967 29.3871 5.50348 30.1278 5.57348L33.5314 5.8963C34.6467 6.00216 35.5341 6.87659 35.6415 7.97564L35.9691 11.3295C36.0405 12.0595 36.3282 12.7441 36.8017 13.3096L38.9765 15.9096C39.689 16.7617 39.689 17.9983 38.9765 18.8505Z" fill="#ED5730"/>
<path d="M23.9879 6.80573C23.5292 6.80573 23.0676 6.83428 22.6153 6.89139C22.2392 6.93875 21.9731 7.27794 22.0212 7.64847C22.0693 8.01934 22.4138 8.28122 22.7895 8.23421C23.1839 8.18441 23.5871 8.15933 23.9879 8.15933C29.1471 8.15933 33.3444 12.2954 33.3444 17.3793C33.3444 22.4633 29.1468 26.599 23.9879 26.599C18.8286 26.599 14.6313 22.4629 14.6313 17.379C14.6313 13.7528 16.8011 10.4497 20.1591 8.96377C20.5051 8.81089 20.6599 8.41007 20.5044 8.06914C20.3489 7.72786 19.9422 7.57568 19.5965 7.72891C15.7455 9.43285 13.2576 13.2207 13.2576 17.379C13.2576 23.2096 18.0713 27.9526 23.9879 27.9526C29.9045 27.9526 34.7181 23.2096 34.7181 17.379C34.7181 11.5488 29.9045 6.80573 23.9879 6.80573Z" fill="#ED5730"/>
<path d="M17.1662 16.5951C16.3474 17.402 16.3474 18.7152 17.1662 19.5221L20.1662 22.4787C20.5631 22.8694 21.0904 23.0846 21.6516 23.0846C22.2124 23.0846 22.74 22.8694 23.1369 22.4787L29.6858 16.0251C30.5046 15.2178 30.5046 13.905 29.6858 13.0977C28.8669 12.2909 27.5343 12.2909 26.7151 13.0977L21.6516 18.0877L20.1365 16.5951C19.3177 15.7883 17.985 15.7883 17.1662 16.5951ZM21.6516 19.722C21.8336 19.722 22.0081 19.6506 22.1371 19.5235L27.6866 14.0551C27.97 13.7758 28.4308 13.7761 28.7143 14.0551C28.9977 14.3343 28.9977 14.7888 28.7143 15.0677L22.1654 21.5214C22.0283 21.6565 21.8456 21.731 21.6516 21.731C21.4572 21.731 21.2748 21.6565 21.1377 21.5214L18.1374 18.5651C17.8543 18.2858 17.8543 17.8314 18.1374 17.5524C18.2791 17.4128 18.4653 17.3428 18.6516 17.3428C18.8374 17.3428 19.0237 17.4128 19.165 17.5521L21.1656 19.5235C21.2946 19.6506 21.4692 19.722 21.6516 19.722Z" fill="#ED5730"/>
</g>
<defs>
<clipPath id="clip0_8_106">
<rect width="46.3208" height="45.6447" fill="white" transform="translate(0.848999 0.729614)"/>
</clipPath>
</defs>
</svg>
