<svg width="87" height="65" viewBox="0 0 87 65" fill="none" xmlns="http://www.w3.org/2000/svg">
<path d="M0 29.8217H21.1015C20.7407 45.2005 16.3788 46.9462 10.9005 47.4445L8.78788 47.7064V64.6169L11.223 64.4864C18.3768 64.0839 26.2859 62.7943 31.5625 56.2803C36.188 50.5699 38.2273 41.2407 38.2273 26.9195V0.382324H0V29.8217Z" fill="#15136B"/>
<path d="M48.7727 0.382324V29.8217H69.5925C69.2318 45.2005 65.011 46.9462 59.5326 47.4445L57.5606 47.7064V64.6169L59.8551 64.4864C67.0089 64.0839 74.9887 62.7943 80.2654 56.2803C84.8904 50.5699 87 41.2407 87 26.9195V0.382324H48.7727Z" fill="#15136B"/>
</svg>
